<svg xmlns="http://www.w3.org/2000/svg" xmlns:xlink="http://www.w3.org/1999/xlink" version="1.2" baseProfile="tiny" x="0px" y="0px" viewBox="0 0 100 125" xml:space="preserve"><g><path d="M60,26.459V22.5c0-1.381-1.119-2.5-2.5-2.5h-5v-2.5c0-4.136,3.364-7.5,7.5-7.5c2.004,0,3.887,0.78,5.303,2.196   c2.36,2.36,5.499,3.661,8.84,3.661c1.381,0,2.5-1.119,2.5-2.5s-1.119-2.5-2.5-2.5c-2.004,0-3.888-0.78-5.304-2.196   C66.479,6.3,63.339,5,60,5c-6.893,0-12.5,5.607-12.5,12.5V20h-5c-1.381,0-2.5,1.119-2.5,2.5v3.959C25.184,30.846,15,44.365,15,60   c0,19.299,15.701,35,35,35s35-15.701,35-35C85,44.365,74.816,30.846,60,26.459z M50,90c-16.542,0-30-13.458-30-30   c0-13.975,9.488-25.977,23.075-29.188C44.203,30.546,45,29.539,45,28.38V25h10v3.38c0,1.159,0.797,2.166,1.925,2.433   C70.512,34.023,80,46.025,80,60C80,76.542,66.542,90,50,90z"/><path d="M35.857,42.322c-0.977-0.977-2.559-0.977-3.535,0c-9.747,9.747-9.747,25.608,0,35.355c0.488,0.488,1.128,0.732,1.768,0.732   s1.279-0.244,1.768-0.732c0.977-0.976,0.977-2.559,0-3.535c-7.797-7.798-7.797-20.487,0-28.285   C36.834,44.881,36.834,43.298,35.857,42.322z"/></g></svg>