<svg xmlns="http://www.w3.org/2000/svg" xmlns:xlink="http://www.w3.org/1999/xlink" version="1.2" baseProfile="tiny" x="0px" y="0px" viewBox="0 0 100 125" xml:space="preserve"><path d="M67.5,10H57.071C56.04,7.09,53.26,5,50,5s-6.04,2.09-7.071,5H32.5c-1.381,0-2.5,1.119-2.5,2.5V15h-7.5   c-4.136,0-7.5,3.364-7.5,7.5v65c0,4.136,3.364,7.5,7.5,7.5H75c3.981,0,10-2.991,10-7.5v-65c0-4.136-3.364-7.5-7.5-7.5H70v-2.5   C70,11.119,68.881,10,67.5,10z M35,15h10c1.381,0,2.5-1.119,2.5-2.5c0-1.379,1.121-2.5,2.5-2.5s2.5,1.121,2.5,2.5   c0,1.381,1.119,2.5,2.5,2.5h10v5H35V15z M77.5,20c1.379,0,2.5,1.121,2.5,2.5v64.993C79.892,88.301,77.051,90,75,90H22.5   c-1.379,0-2.5-1.121-2.5-2.5v-65c0-1.379,1.121-2.5,2.5-2.5H30v2.5c0,1.381,1.119,2.5,2.5,2.5h35c1.381,0,2.5-1.119,2.5-2.5V20   H77.5z"/><path d="M64.268,45.732c-0.977-0.977-2.559-0.977-3.535,0L50,56.465L39.268,45.732c-0.977-0.977-2.559-0.977-3.535,0   s-0.977,2.559,0,3.535L46.465,60L35.732,70.732c-0.977,0.977-0.977,2.559,0,3.535C36.221,74.756,36.86,75,37.5,75   s1.279-0.244,1.768-0.732L50,63.535l10.732,10.732C61.221,74.756,61.86,75,62.5,75s1.279-0.244,1.768-0.732   c0.977-0.977,0.977-2.559,0-3.535L53.535,60l10.732-10.732C65.244,48.291,65.244,46.709,64.268,45.732z"/></svg>