<svg xmlns="http://www.w3.org/2000/svg" xmlns:xlink="http://www.w3.org/1999/xlink" version="1.2" baseProfile="tiny" x="0px" y="0px" viewBox="0 0 100 125" xml:space="preserve"><path d="M67.5,10H57.071C56.04,7.09,53.26,5,50,5s-6.04,2.09-7.071,5H32.5c-1.381,0-2.5,1.119-2.5,2.5V15h-7.5   c-4.136,0-7.5,3.364-7.5,7.5v65c0,4.136,3.364,7.5,7.5,7.5h55c4.136,0,7.5-3.364,7.5-7.5v-65c0-4.136-3.364-7.5-7.5-7.5H70v-2.5   C70,11.119,68.881,10,67.5,10z M35,15h10c1.381,0,2.5-1.119,2.5-2.5c0-1.379,1.121-2.5,2.5-2.5s2.5,1.121,2.5,2.5   c0,1.381,1.119,2.5,2.5,2.5h10v5H35V15z M77.5,20c1.379,0,2.5,1.121,2.5,2.5v65c0,1.379-1.121,2.5-2.5,2.5h-55   c-1.379,0-2.5-1.121-2.5-2.5v-65c0-1.379,1.121-2.5,2.5-2.5H30v2.5c0,1.381,1.119,2.5,2.5,2.5h35c1.381,0,2.5-1.119,2.5-2.5V20   H77.5z"/><path d="M65.732,45.732L42.5,68.965l-8.232-8.232c-0.977-0.977-2.559-0.977-3.535,0s-0.977,2.559,0,3.535l10,10   C41.221,74.756,41.86,75,42.5,75s1.279-0.244,1.768-0.732l25-25c0.977-0.977,0.977-2.559,0-3.535S66.709,44.756,65.732,45.732z"/></svg>