<svg xmlns="http://www.w3.org/2000/svg" viewBox="0 0 48 60" x="0px" y="0px"><g data-name="1 Down"><path d="M44.14,27.86a5.93,5.93,0,0,1-1.76,4.24L28.24,46.24a5.5,5.5,0,0,1-.91.75,3.24,3.24,0,0,1-.36.2l-.21.12-.46.23a3.49,3.49,0,0,1-.49.16l-.23.07-.41.11a5.76,5.76,0,0,1-2.34,0l-.41-.11-.23-.07a3.86,3.86,0,0,1-.48-.16,3.42,3.42,0,0,1-.47-.23L21,47.19a3.24,3.24,0,0,1-.36-.2,5.5,5.5,0,0,1-.91-.75L5.62,32.1a6,6,0,1,1,8.48-8.48L18,27.51V6A6,6,0,0,1,30,6V27.51l3.9-3.89a6,6,0,0,1,10.24,4.24Z"/></g></svg>