<svg xmlns="http://www.w3.org/2000/svg" version="1.1" viewBox="-5.0 -10.0 110.0 135.0">
 <path d="m82.699 47.301v33.699c0 7.6992-6.3008 14-14 14h-49.699c-7.6992 0-14-6.3008-14-14v-49.699c0-7.6992 6.3008-14 14-14h33.699c1.3984 0 2.5 1.1016 2.5 2.5 0 1.3984-1.1016 2.5-2.5 2.5h-33.699c-4.8984 0-9 4-9 9v49.699c0 4.8984 4 9 9 9h49.699c4.8984 0 9-4 9-9v-33.699c0-1.3984 1.1016-2.5 2.5-2.5 1.4023 0 2.5 1.0977 2.5 2.5zm-11.199-33.801 15 15-38.602 38.602c-1.8008 1.8008-4 3.1992-6.5 3.8984l-9.3008 2.8984c-0.5 0.10156-1 0.19922-1.3984 0.19922-1.3008 0-2.5-0.5-3.3984-1.3984-1.3008-1.3008-1.6992-3.1016-1.1992-4.8008l2.8984-9.3008c0.80078-2.3984 2.1016-4.6992 3.8984-6.5zm-29.199 51.602-7.3984-7.3984c-0.5 0.80078-0.89844 1.6016-1.1016 2.5l-1.3008 4.3008 3.1992 3.1992 4.3008-1.3008c0.80078-0.50391 1.6016-0.90234 2.3008-1.3008zm50.598-53.402-4.6016-4.6016c-2.8984-2.8984-7.5-2.8984-10.398 0l-2.8008 2.8008 15 15 2.8008-2.8008c2.8008-2.7969 2.8008-7.4961 0-10.398z"/>
</svg>