<svg xmlns="http://www.w3.org/2000/svg" xmlns:xlink="http://www.w3.org/1999/xlink" version="1.1" x="0px" y="0px" viewBox="0 0 100 125" enable-background="new 0 0 100 100" xml:space="preserve"><g><path d="M79.161,15.537H32.135v39.188H20.839v23.167c0,3.622,2.947,6.57,6.57,6.57c0.132,0,0.262-0.012,0.392-0.021   c0.101,0.006,0.198,0.021,0.3,0.021h9.798h31.688h3.006c3.621,0,6.569-2.948,6.569-6.57c0-0.094-0.009-0.186-0.014-0.278   c0.005-0.003,0.009-0.008,0.014-0.01V15.537z M27.409,82.619c-2.606,0-4.726-2.12-4.726-4.727V56.57h9.451v14.224v7.099   C32.135,80.499,30.015,82.619,27.409,82.619z M77.316,77.75c-0.002,0.005-0.004,0.011-0.008,0.018   c0.002,0.042,0.008,0.082,0.008,0.125c0,2.606-2.119,4.727-4.725,4.727H38.685h-6.723c1.241-1.197,2.017-2.871,2.017-4.727v-7.203   V54.726V17.382h43.338V77.75z"/><rect x="41.509" y="31.98" width="28.585" height="1.845"/><rect x="41.509" y="42.66" width="28.585" height="1.844"/><rect x="41.509" y="53.339" width="28.585" height="1.845"/></g></svg>