<svg xmlns="http://www.w3.org/2000/svg" version="1.1" viewBox="-5.0 -10.0 110.0 135.0">
 <path d="m94.242 14.984-9.2266-9.2227c-1.6992-1.6992-3.957-2.6367-6.3594-2.6367h-63.031c-6.8906 0-12.5 5.6094-12.5 12.5v68.75c0 6.8906 5.6094 12.5 12.5 12.5h68.75c6.8906 0 12.5-5.6094 12.5-12.5v-63.031c0-2.4023-0.9375-4.6602-2.6328-6.3594zm-24.387-5.6094v13.219c0 1.7227-1.4023 3.125-3.125 3.125h-39.766c-1.7227 0-3.125-1.4023-3.125-3.125v-13.219zm-46.855 81.25v-37.508c0-3.4453 2.8047-6.25 6.25-6.25h41.5c3.4453 0 6.25 2.8047 6.25 6.25v37.508zm67.625-6.25c0 3.4453-2.8047 6.25-6.25 6.25h-1.125v-37.508c0-6.8906-5.6094-12.5-12.5-12.5h-41.5c-6.8906 0-12.5 5.6094-12.5 12.5v37.508h-1.125c-3.4453 0-6.25-2.8047-6.25-6.25v-68.75c0-3.4453 2.8047-6.25 6.25-6.25h1.9648v13.219c0 5.1719 4.2031 9.375 9.375 9.375h39.766c5.1719 0 9.375-4.2031 9.375-9.375l-0.003907-13.219h2.5508c0.73438 0 1.4219 0.28516 1.9375 0.80469l9.2266 9.2227c0.51953 0.51953 0.80469 1.207 0.80469 1.9414v63.031z"/>
</svg>