<svg xmlns="http://www.w3.org/2000/svg" viewBox="0 0 48 60" x="0px" y="0px"><g data-name="4 Up"><path d="M42.38,24.38a6,6,0,0,1-8.48,0L30,20.48V42a6,6,0,0,1-12,0V20.48l-3.9,3.9A6,6,0,0,1,5.62,15.9L19.76,1.75A5.54,5.54,0,0,1,20.67,1c.12-.08.24-.14.36-.21l.21-.11a3.42,3.42,0,0,1,.47-.23A3,3,0,0,1,22.19.3l.24-.07a1.9,1.9,0,0,1,.39-.11,5.81,5.81,0,0,1,2.35,0,2.45,2.45,0,0,1,.41.11l.23.07a2.7,2.7,0,0,1,.48.16,3.42,3.42,0,0,1,.47.23L27,.81a3.24,3.24,0,0,1,.36.2,5.12,5.12,0,0,1,.91.75L42.38,15.9A6,6,0,0,1,42.38,24.38Z"/></g></svg>